REM DIRINDEX 1\2,1\4,1\5,1\6,1\7,1\3\8,1\3\9,1\3\10
REM DIRNAME cjc113,folder01,folder02,folder03,folder04,folder05,folder06,folder07,folder08,folder09
TITLE ""
FILE "DB4500_5th_3B_22.mp3" MP3
  TRACK 01 AUDIO
    TITLE "0:"
    INDEX 01 00:00:00
  TRACK 02 AUDIO
    TITLE "8:cjc113_2592"
    INDEX 01 00:00:03
  TRACK 03 AUDIO
    TITLE "0:"
    INDEX 01 00:01:28
  TRACK 04 AUDIO
    TITLE "9:cjc113_2593"
    INDEX 01 00:01:46
  TRACK 05 AUDIO
    TITLE "0:"
    INDEX 01 00:02:67
  TRACK 06 AUDIO
    TITLE "10:cjc113_2594"
    INDEX 01 00:03:10
  TRACK 07 AUDIO
    TITLE "0:"
    INDEX 01 00:07:35
  TRACK 08 AUDIO
    TITLE "8:cjc113_2595"
    INDEX 01 00:08:03
  TRACK 09 AUDIO
    TITLE "0:"
    INDEX 01 00:09:14
  TRACK 10 AUDIO
    TITLE "9:cjc113_2596"
    INDEX 01 00:09:36
  TRACK 11 AUDIO
    TITLE "0:"
    INDEX 01 00:10:55
  TRACK 12 AUDIO
    TITLE "10:cjc113_2597"
    INDEX 01 00:10:74
  TRACK 13 AUDIO
    TITLE "0:"
    INDEX 01 00:14:45
  TRACK 14 AUDIO
    TITLE "8:cjc113_2598"
    INDEX 01 00:15:15
  TRACK 15 AUDIO
    TITLE "0:"
    INDEX 01 00:16:26
  TRACK 16 AUDIO
    TITLE "9:cjc113_2599"
    INDEX 01 00:16:44
  TRACK 17 AUDIO
    TITLE "0:"
    INDEX 01 00:17:72
  TRACK 18 AUDIO
    TITLE "10:cjc113_2600"
    INDEX 01 00:18:13
  TRACK 19 AUDIO
    TITLE "0:"
    INDEX 01 00:22:23
  TRACK 20 AUDIO
    TITLE "8:cjc113_2601"
    INDEX 01 00:22:66
  TRACK 21 AUDIO
    TITLE "0:"
    INDEX 01 00:24:12
  TRACK 22 AUDIO
    TITLE "9:cjc113_2602"
    INDEX 01 00:24:27
  TRACK 23 AUDIO
    TITLE "0:"
    INDEX 01 00:25:60
  TRACK 24 AUDIO
    TITLE "10:cjc113_2603"
    INDEX 01 00:26:01
  TRACK 25 AUDIO
    TITLE "0:"
    INDEX 01 00:29:64
  TRACK 26 AUDIO
    TITLE "8:cjc113_2604"
    INDEX 01 00:30:30
  TRACK 27 AUDIO
    TITLE "0:"
    INDEX 01 00:31:43
  TRACK 28 AUDIO
    TITLE "9:cjc113_2605"
    INDEX 01 00:31:63
  TRACK 29 AUDIO
    TITLE "0:"
    INDEX 01 00:33:17
  TRACK 30 AUDIO
    TITLE "10:cjc113_2606"
    INDEX 01 00:33:38
  TRACK 31 AUDIO
    TITLE "0:"
    INDEX 01 00:38:12
  TRACK 32 AUDIO
    TITLE "8:cjc113_2607"
    INDEX 01 00:38:55
  TRACK 33 AUDIO
    TITLE "0:"
    INDEX 01 00:40:05
  TRACK 34 AUDIO
    TITLE "9:cjc113_2608"
    INDEX 01 00:40:19
  TRACK 35 AUDIO
    TITLE "0:"
    INDEX 01 00:41:49
  TRACK 36 AUDIO
    TITLE "10:cjc113_2609"
    INDEX 01 00:41:67
  TRACK 37 AUDIO
    TITLE "0:"
    INDEX 01 00:44:73
  TRACK 38 AUDIO
    TITLE "8:cjc113_2610"
    INDEX 01 00:45:39
  TRACK 39 AUDIO
    TITLE "0:"
    INDEX 01 00:46:47
  TRACK 40 AUDIO
    TITLE "9:cjc113_2611"
    INDEX 01 00:46:68
  TRACK 41 AUDIO
    TITLE "0:"
    INDEX 01 00:48:18
  TRACK 42 AUDIO
    TITLE "10:cjc113_2612"
    INDEX 01 00:48:36
  TRACK 43 AUDIO
    TITLE "0:"
    INDEX 01 00:51:16
  TRACK 44 AUDIO
    TITLE "8:cjc113_2613"
    INDEX 01 00:51:58
  TRACK 45 AUDIO
    TITLE "0:"
    INDEX 01 00:53:02
  TRACK 46 AUDIO
    TITLE "9:cjc113_2614"
    INDEX 01 00:53:23
  TRACK 47 AUDIO
    TITLE "0:"
    INDEX 01 00:54:46
  TRACK 48 AUDIO
    TITLE "10:cjc113_2615"
    INDEX 01 00:54:66
  TRACK 49 AUDIO
    TITLE "0:"
    INDEX 01 00:57:72
  TRACK 50 AUDIO
    TITLE "8:cjc113_2616"
    INDEX 01 00:58:38
  TRACK 51 AUDIO
    TITLE "0:"
    INDEX 01 00:59:73
  TRACK 52 AUDIO
    TITLE "9:cjc113_2617"
    INDEX 01 01:00:15
  TRACK 53 AUDIO
    TITLE "0:"
    INDEX 01 01:01:52
  TRACK 54 AUDIO
    TITLE "10:cjc113_2618"
    INDEX 01 01:01:70
  TRACK 55 AUDIO
    TITLE "0:"
    INDEX 01 01:06:34
  TRACK 56 AUDIO
    TITLE "8:cjc113_2619"
    INDEX 01 01:07:08
  TRACK 57 AUDIO
    TITLE "0:"
    INDEX 01 01:08:21
  TRACK 58 AUDIO
    TITLE "9:cjc113_2620"
    INDEX 01 01:08:42
  TRACK 59 AUDIO
    TITLE "0:"
    INDEX 01 01:09:71
  TRACK 60 AUDIO
    TITLE "10:cjc113_2621"
    INDEX 01 01:10:20
  TRACK 61 AUDIO
    TITLE "0:"
    INDEX 01 01:14:35
  TRACK 62 AUDIO
    TITLE "8:cjc113_2622"
    INDEX 01 01:15:07
  TRACK 63 AUDIO
    TITLE "0:"
    INDEX 01 01:16:42
  TRACK 64 AUDIO
    TITLE "9:cjc113_2623"
    INDEX 01 01:16:65
  TRACK 65 AUDIO
    TITLE "0:"
    INDEX 01 01:19:17
  TRACK 66 AUDIO
    TITLE "10:cjc113_2624"
    INDEX 01 01:19:40
  TRACK 67 AUDIO
    TITLE "0:"
    INDEX 01 01:24:30
  TRACK 68 AUDIO
    TITLE "8:cjc113_2625"
    INDEX 01 01:25:06
  TRACK 69 AUDIO
    TITLE "0:"
    INDEX 01 01:26:30
  TRACK 70 AUDIO
    TITLE "9:cjc113_2626"
    INDEX 01 01:26:52
  TRACK 71 AUDIO
    TITLE "0:"
    INDEX 01 01:28:27
  TRACK 72 AUDIO
    TITLE "10:cjc113_2627"
    INDEX 01 01:28:47
  TRACK 73 AUDIO
    TITLE "0:"
    INDEX 01 01:32:06
  TRACK 74 AUDIO
    TITLE "8:cjc113_2628"
    INDEX 01 01:32:57
  TRACK 75 AUDIO
    TITLE "0:"
    INDEX 01 01:33:64
  TRACK 76 AUDIO
    TITLE "9:cjc113_2629"
    INDEX 01 01:34:12
  TRACK 77 AUDIO
    TITLE "0:"
    INDEX 01 01:35:59
  TRACK 78 AUDIO
    TITLE "10:cjc113_2630"
    INDEX 01 01:36:07
  TRACK 79 AUDIO
    TITLE "0:"
    INDEX 01 01:39:74
